<?xml version="1.0" encoding="utf-8"?>
<!-- Generator: Adobe Illustrator 26.0.0, SVG Export Plug-In . SVG Version: 6.00 Build 0)  -->
<svg version="1.1" id="Camada_1" xmlns="http://www.w3.org/2000/svg" xmlns:xlink="http://www.w3.org/1999/xlink" x="0px" y="0px"
	 viewBox="0 0 1200 1200" style="enable-background:new 0 0 1200 1200;" xml:space="preserve">
<style type="text/css">
	.st0{display:none;}
	.st1{fill:#FFFFFF;}
</style>
<g id="Camada_1_00000033335731028270968390000001443772382451136160_" class="st0">
	
		<image style="display:inline;overflow:visible;enable-background:new    ;" width="1024" height="778" xlink:href="C4AC5E58.png"  transform="matrix(1 0 0 1 52 246)">
	</image>
</g>
<g id="Camada_2_00000070820610455370636160000013281623048361446834_">
	<path class="st1" d="M1120.5,422.5c-5.6-170.4-135.3-316.5-308.4-342.7h-564v197.7c86.5,111.6,173.1,223.2,259.6,334.7
		c-124.3,0-248.7,0-373,0v176.6l118.6,5.2l-5.2,350.6h205.6V788.9h358.5C993.9,761.2,1126.4,601.4,1120.5,422.5z M762,612.3
		L490.5,264.4h300.6c80.5,20.2,137.4,89.4,139.6,166.1C933.5,520.2,860.7,603.1,762,612.3z"/>
</g>
</svg>
