<?xml version="1.0" standalone="no"?>
<!DOCTYPE svg PUBLIC "-//W3C//DTD SVG 20010904//EN"
 "http://www.w3.org/TR/2001/REC-SVG-20010904/DTD/svg10.dtd">
<svg version="1.0" xmlns="http://www.w3.org/2000/svg"
 width="700.000000pt" height="700.000000pt" viewBox="0 0 700.000000 700.000000"
 preserveAspectRatio="xMidYMid meet">
<metadata>
Created by potrace 1.14, written by Peter Selinger 2001-2017
</metadata>
<g transform="translate(0.000000,700.000000) scale(0.100000,-0.100000)"
fill="#000000" stroke="none">
<path d="M1449 6515 c0 -11 -1 -271 -1 -579 l0 -558 30 -37 c16 -20 154 -198
308 -396 153 -198 291 -376 306 -395 16 -19 104 -134 198 -255 93 -121 226
-292 295 -380 68 -88 180 -232 248 -320 l124 -160 -1081 -3 c-637 -1 -1082 -6
-1086 -11 -7 -13 -6 -1009 2 -1016 4 -4 40 -8 80 -10 40 -2 150 -7 243 -11 94
-4 190 -8 215 -9 25 -2 68 -3 96 -4 l51 -1 -2 -182 c-5 -331 -17 -1150 -20
-1318 -2 -91 -4 -250 -5 -355 l-2 -190 599 0 598 0 2 1020 c0 561 2 1027 2
1036 1 15 87 17 1054 17 l1052 0 120 27 c196 44 298 81 490 175 456 224 833
630 1020 1099 38 95 96 271 89 271 -2 0 1 12 6 26 9 23 35 162 46 249 18 133
5 492 -21 585 -2 8 -7 31 -10 50 -10 59 -63 237 -99 328 -129 334 -342 628
-621 859 -122 101 -124 103 -132 103 -4 0 -16 8 -27 18 -73 65 -346 201 -511
256 -132 44 -224 68 -315 82 -25 4 -786 8 -1693 8 -1640 1 -1647 1 -1648 -19z
m3261 -1088 c166 -57 286 -133 411 -257 159 -158 255 -337 296 -555 4 -22 7
-98 7 -170 -1 -148 -27 -268 -84 -390 -121 -259 -364 -478 -630 -568 -75 -25
-212 -57 -248 -57 -17 0 -58 48 -197 230 -28 35 -58 73 -67 85 -9 11 -62 79
-118 150 -55 72 -106 137 -113 145 -6 8 -64 82 -127 164 -112 144 -128 165
-217 278 -24 29 -136 172 -249 318 -241 310 -236 303 -312 400 -32 41 -90 116
-129 166 l-71 91 881 0 882 0 85 -30z"/>
</g>
</svg>
